<svg width="1044" height="207.56" xmlns="http://www.w3.org/2000/svg">
 <style type="text/css">.st0{enable-background:new    ;}
	.st1{fill:#EA4535;}
	.st2{fill:#557EBF;}
	.st3{fill:#F9BC15;}
	.st4{fill:#0B9D58;}</style>

 <g>
  <title>background</title>
  <rect x="-1" y="-1" width="1046" height="209.56" id="canvas_background" fill="none"/>
 </g>
 <g>
  <title>Layer 1</title>
  <g id="XMLID_7_">
   <path id="XMLID_2_" d="m477.5,59.01c0,10.9 -3.2,19.7 -9.7,26.1c-7.4,7.7 -17,11.6 -28.8,11.6c-11.3,0 -20.9,-3.9 -28.8,-11.8c-7.9,-7.8 -11.9,-17.6 -11.9,-29.1s4,-21.3 11.9,-29.1s17.5,-11.8 28.8,-11.8c5.6,0 11,1.1 16.1,3.3s9.2,5.1 12.2,8.8l-6.9,6.9c-5.2,-6.2 -12.3,-9.3 -21.4,-9.3c-8.2,0 -15.4,2.9 -21.4,8.7s-9,13.3 -9,22.6s3,16.8 9,22.6c6,5.8 13.1,8.7 21.4,8.7c8.8,0 16,-2.9 21.9,-8.8c3.8,-3.8 6,-9.1 6.6,-15.9l-28.5,0l0,-9.4l38,0c0.3,2.1 0.5,4 0.5,5.9l0,0z"/>
   <path id="XMLID_4_" d="m487.4,95.01l0,-78.3l24,0c12,0 21.7,3.6 28.9,10.9s10.8,16.7 10.8,28.3s-3.6,21 -10.8,28.3c-7.2,7.3 -16.8,10.9 -28.9,10.9l-24,0l0,-0.1zm10.1,-9.6l13.9,0c9,0 16.2,-2.6 21.5,-7.8c5.3,-5.2 7.9,-12.4 7.9,-21.8c0,-9.3 -2.6,-16.5 -7.9,-21.7s-12.5,-7.8 -21.5,-7.8l-13.9,0c0,0 0,59.1 0,59.1z"/>
   <path id="XMLID_8_" d="m636.5,59.01c0,10.9 -3.2,19.7 -9.7,26.1c-7.4,7.7 -17,11.6 -28.8,11.6c-11.3,0 -20.9,-3.9 -28.8,-11.8c-7.9,-7.8 -11.9,-17.6 -11.9,-29.1s4,-21.3 11.9,-29.1c7.9,-7.8 17.5,-11.8 28.8,-11.8c5.6,0 11,1.1 16.1,3.3c5.1,2.2 9.2,5.1 12.2,8.8l-6.9,6.9c-5.2,-6.2 -12.3,-9.3 -21.4,-9.3c-8.2,0 -15.4,2.9 -21.4,8.7s-9,13.3 -9,22.6s3,16.8 9,22.6c6,5.8 13.1,8.7 21.4,8.7c8.8,0 16,-2.9 21.9,-8.8c3.8,-3.8 6,-9.1 6.6,-15.9l-28.5,0l0,-9.4l38,0c0.3,2.1 0.5,4 0.5,5.9l0,0z"/>
   <path id="XMLID_10_" d="m672.8,95.01l0,-78.3l24,0c12,0 21.7,3.6 28.9,10.9s10.8,16.7 10.8,28.3s-3.6,21 -10.8,28.3s-16.8,10.9 -28.9,10.9l-24,0l0,-0.1zm10.1,-9.6l13.9,0c9,0 16.2,-2.6 21.5,-7.8c5.3,-5.2 7.9,-12.4 7.9,-21.8c0,-9.3 -2.6,-16.5 -7.9,-21.7c-5.3,-5.2 -12.5,-7.8 -21.5,-7.8l-13.9,0c0,0 0,59.1 0,59.1z"/>
   <path id="XMLID_13_" d="m769.4,96.81c-8.1,0 -14.7,-2.7 -19.7,-8.1c-5.1,-5.4 -7.6,-12.2 -7.6,-20.5c0,-7.8 2.5,-14.5 7.4,-20.1s11.2,-8.4 18.9,-8.4c7.9,0 14.3,2.6 19.1,7.8s7.2,12.1 7.2,20.8l-0.1,1.9l-42.3,0c0.3,5.4 2.1,9.7 5.4,12.8c3.3,3.1 7.2,4.7 11.6,4.7c7.2,0 12.1,-3.1 14.7,-9.2l9,3.7c-1.8,4.2 -4.6,7.6 -8.6,10.4c-4.2,2.8 -9.1,4.2 -15,4.2l0,0zm14.5,-35c-0.2,-3.1 -1.6,-6 -4.2,-8.8c-2.6,-2.8 -6.4,-4.2 -11.5,-4.2c-3.7,0 -6.9,1.2 -9.7,3.5c-2.7,2.3 -4.6,5.5 -5.6,9.4l31,0l0,0.1z"/>
   <path id="XMLID_16_" d="m815.7,95.01l-21.7,-53.6l11,0l15.8,41.6l0.2,0l16,-41.6l10.7,0l-21.9,53.6l-10.1,0z"/>
   <path id="XMLID_18_" d="m863.6,95.01l-10.1,0l0,-78.3l45.7,0l0,9.6l-35.7,0l0,25.7l32.2,0l0,9.4l-32.2,0l0,33.6l0.1,0z"/>
   <path id="XMLID_20_" d="m929.7,96.81c-8.1,0 -14.7,-2.7 -19.7,-8.1c-5.1,-5.4 -7.6,-12.2 -7.6,-20.5c0,-7.8 2.5,-14.5 7.4,-20.1s11.2,-8.4 18.9,-8.4c7.9,0 14.3,2.6 19.1,7.8s7.2,12.1 7.2,20.8l-0.1,1.9l-42.3,0c0.3,5.4 2.1,9.7 5.4,12.8c3.3,3.1 7.2,4.7 11.6,4.7c7.2,0 12.1,-3.1 14.7,-9.2l9,3.7c-1.8,4.2 -4.6,7.6 -8.6,10.4c-4.3,2.8 -9.2,4.2 -15,4.2l0,0zm14.4,-35c-0.2,-3.1 -1.6,-6 -4.2,-8.8c-2.6,-2.8 -6.4,-4.2 -11.5,-4.2c-3.7,0 -6.9,1.2 -9.7,3.5c-2.7,2.3 -4.6,5.5 -5.6,9.4l31,0l0,0.1z"/>
   <path id="XMLID_27_" d="m981.5,96.81c-6,0 -10.9,-1.5 -14.8,-4.4c-3.9,-2.9 -6.8,-6.6 -8.6,-10.9l9,-3.7c2.8,6.7 7.7,10.1 14.5,10.1c3.1,0 5.7,-0.7 7.7,-2.1s3,-3.2 3,-5.5c0,-3.5 -2.4,-5.9 -7.3,-7.1l-10.8,-2.6c-3.4,-0.9 -6.7,-2.5 -9.7,-5c-3.1,-2.4 -4.6,-5.7 -4.6,-9.9c0,-4.7 2.1,-8.6 6.3,-11.5c4.2,-3 9.2,-4.4 14.9,-4.4c4.7,0 9,1.1 12.7,3.2c3.7,2.2 6.4,5.2 8,9.2l-8.8,3.6c-2,-4.7 -6.1,-7.1 -12.2,-7.1c-3,0 -5.5,0.6 -7.5,1.9c-2,1.2 -3.1,2.9 -3.1,5c0,3.1 2.4,5.1 7.1,6.2l10.6,2.5c5,1.2 8.8,3.2 11.2,6c2.4,2.8 3.6,6.1 3.6,9.6c0,4.8 -2,8.8 -5.9,12c-4,3.3 -9.1,4.9 -15.3,4.9l0,0z"/>
   <path id="XMLID_29_" d="m1032.9,95.91c-5.6,0 -9.9,-1.5 -12.9,-4.5s-4.4,-7.2 -4.4,-12.7l0,-28.1l-9.4,0l0,-9.2l9.4,0l0,-16.4l10.1,0l0,16.4l13.1,0l0,9.2l-13.1,0l0,27.3c0,5.8 2.4,8.8 7.2,8.8c1.8,0 3.4,-0.3 4.6,-0.9l3.5,8.6c-2.2,1 -4.9,1.5 -8.1,1.5l0,0z"/>
  </g>
  <g id="svg_13">
   <g id="svg_14">
    <path class="st1" d="m87.05,96.43l56.35,-32.53c13.26,-7.66 17.8,-24.61 10.15,-37.87c-7.66,-13.26 -24.61,-17.81 -37.87,-10.15l-97.37,56.21l68.74,24.34z" id="svg_15"/>
   </g>
   <g id="svg_16">
    <path class="st2" d="m129.51,180.05c9.58,0 18.9,-4.97 24.04,-13.87c7.66,-13.26 3.11,-30.22 -10.15,-37.87l-97.37,-56.22c-13.26,-7.66 -30.22,-3.11 -37.87,10.15c-7.66,13.26 -3.12,30.22 10.15,37.87l97.37,56.21c4.36,2.53 9.13,3.73 13.83,3.73z" id="svg_17"/>
   </g>
   <g id="svg_18">
    <path class="st3" d="m226.37,180.05c4.7,0 9.47,-1.2 13.84,-3.72l97.37,-56.21l-67.88,-24.85l-57.22,33.04c-13.26,7.66 -17.8,24.61 -10.15,37.87c5.13,8.89 14.45,13.87 24.04,13.87z" id="svg_19"/>
   </g>
   <g id="svg_20">
    <path class="st4" d="m323.68,123.83c9.58,0 18.9,-4.97 24.04,-13.87c7.66,-13.26 3.11,-30.22 -10.15,-37.87l-97.37,-56.22c-13.26,-7.66 -30.22,-3.11 -37.87,10.15c-7.66,13.26 -3.11,30.22 10.15,37.87l97.37,56.22c4.36,2.52 9.13,3.72 13.83,3.72z" id="svg_21"/>
   </g>
  </g>
  <text fill="#000000" stroke-width="0" stroke-opacity="null" x="367.695968" y="95.967117" id="svg_22" font-size="24" font-family="Helvetica, Arial, sans-serif" text-anchor="start" xml:space="preserve" transform="matrix(3.560319197507568,0,0,3.560319197507568,-916.4851555138789,-162.55351874983955) " stroke="#000">Sudbury 2020</text>
 </g>
</svg>
