<?xml version="1.0" encoding="utf-8"?>
<!-- Generator: Adobe Illustrator 23.0.3, SVG Export Plug-In . SVG Version: 6.00 Build 0)  -->
<svg version="1.1" id="Layer_1" xmlns="http://www.w3.org/2000/svg" xmlns:xlink="http://www.w3.org/1999/xlink" x="0px" y="0px"
	 viewBox="0 0 1044 207.56" style="enable-background:new 0 0 1044 207.56;" xml:space="preserve">
<style type="text/css">
	.st0{enable-background:new    ;}
	.st1{fill:#EA4535;}
	.st2{fill:#557EBF;}
	.st3{fill:#F9BC15;}
	.st4{fill:#0B9D58;}
</style>
<g id="XMLID_7_">
	<path id="XMLID_2_" d="M477.5,59.01c0,10.9-3.2,19.7-9.7,26.1c-7.4,7.7-17,11.6-28.8,11.6c-11.3,0-20.9-3.9-28.8-11.8
		c-7.9-7.8-11.9-17.6-11.9-29.1s4-21.3,11.9-29.1s17.5-11.8,28.8-11.8c5.6,0,11,1.1,16.1,3.3s9.2,5.1,12.2,8.8l-6.9,6.9
		c-5.2-6.2-12.3-9.3-21.4-9.3c-8.2,0-15.4,2.9-21.4,8.7s-9,13.3-9,22.6s3,16.8,9,22.6c6,5.8,13.1,8.7,21.4,8.7
		c8.8,0,16-2.9,21.9-8.8c3.8-3.8,6-9.1,6.6-15.9H439v-9.4h38C477.3,55.21,477.5,57.11,477.5,59.01L477.5,59.01z"/>
	<path id="XMLID_4_" d="M487.4,95.01v-78.3h24c12,0,21.7,3.6,28.9,10.9s10.8,16.7,10.8,28.3s-3.6,21-10.8,28.3
		c-7.2,7.3-16.8,10.9-28.9,10.9h-24V95.01z M497.5,85.41h13.9c9,0,16.2-2.6,21.5-7.8c5.3-5.2,7.9-12.4,7.9-21.8
		c0-9.3-2.6-16.5-7.9-21.7s-12.5-7.8-21.5-7.8h-13.9C497.5,26.31,497.5,85.41,497.5,85.41z"/>
	<path id="XMLID_8_" d="M636.5,59.01c0,10.9-3.2,19.7-9.7,26.1c-7.4,7.7-17,11.6-28.8,11.6c-11.3,0-20.9-3.9-28.8-11.8
		c-7.9-7.8-11.9-17.6-11.9-29.1s4-21.3,11.9-29.1c7.9-7.8,17.5-11.8,28.8-11.8c5.6,0,11,1.1,16.1,3.3c5.1,2.2,9.2,5.1,12.2,8.8
		l-6.9,6.9c-5.2-6.2-12.3-9.3-21.4-9.3c-8.2,0-15.4,2.9-21.4,8.7s-9,13.3-9,22.6s3,16.8,9,22.6c6,5.8,13.1,8.7,21.4,8.7
		c8.8,0,16-2.9,21.9-8.8c3.8-3.8,6-9.1,6.6-15.9H598v-9.4h38C636.3,55.21,636.5,57.11,636.5,59.01L636.5,59.01z"/>
	<path id="XMLID_10_" d="M672.8,95.01v-78.3h24c12,0,21.7,3.6,28.9,10.9s10.8,16.7,10.8,28.3s-3.6,21-10.8,28.3
		s-16.8,10.9-28.9,10.9h-24V95.01z M682.9,85.41h13.9c9,0,16.2-2.6,21.5-7.8c5.3-5.2,7.9-12.4,7.9-21.8c0-9.3-2.6-16.5-7.9-21.7
		c-5.3-5.2-12.5-7.8-21.5-7.8h-13.9C682.9,26.31,682.9,85.41,682.9,85.41z"/>
	<path id="XMLID_13_" d="M769.4,96.81c-8.1,0-14.7-2.7-19.7-8.1c-5.1-5.4-7.6-12.2-7.6-20.5c0-7.8,2.5-14.5,7.4-20.1
		s11.2-8.4,18.9-8.4c7.9,0,14.3,2.6,19.1,7.8s7.2,12.1,7.2,20.8l-0.1,1.9h-42.3c0.3,5.4,2.1,9.7,5.4,12.8c3.3,3.1,7.2,4.7,11.6,4.7
		c7.2,0,12.1-3.1,14.7-9.2l9,3.7c-1.8,4.2-4.6,7.6-8.6,10.4C780.2,95.41,775.3,96.81,769.4,96.81L769.4,96.81z M783.9,61.81
		c-0.2-3.1-1.6-6-4.2-8.8c-2.6-2.8-6.4-4.2-11.5-4.2c-3.7,0-6.9,1.2-9.7,3.5c-2.7,2.3-4.6,5.5-5.6,9.4h31V61.81z"/>
	<path id="XMLID_16_" d="M815.7,95.01L794,41.41h11l15.8,41.6h0.2l16-41.6h10.7l-21.9,53.6H815.7z"/>
	<path id="XMLID_18_" d="M863.6,95.01h-10.1v-78.3h45.7v9.6h-35.7v25.7h32.2v9.4h-32.2v33.6H863.6z"/>
	<path id="XMLID_20_" d="M929.7,96.81c-8.1,0-14.7-2.7-19.7-8.1c-5.1-5.4-7.6-12.2-7.6-20.5c0-7.8,2.5-14.5,7.4-20.1
		s11.2-8.4,18.9-8.4c7.9,0,14.3,2.6,19.1,7.8s7.2,12.1,7.2,20.8l-0.1,1.9h-42.3c0.3,5.4,2.1,9.7,5.4,12.8c3.3,3.1,7.2,4.7,11.6,4.7
		c7.2,0,12.1-3.1,14.7-9.2l9,3.7c-1.8,4.2-4.6,7.6-8.6,10.4C940.4,95.41,935.5,96.81,929.7,96.81L929.7,96.81z M944.1,61.81
		c-0.2-3.1-1.6-6-4.2-8.8c-2.6-2.8-6.4-4.2-11.5-4.2c-3.7,0-6.9,1.2-9.7,3.5c-2.7,2.3-4.6,5.5-5.6,9.4h31V61.81z"/>
	<path id="XMLID_27_" d="M981.5,96.81c-6,0-10.9-1.5-14.8-4.4c-3.9-2.9-6.8-6.6-8.6-10.9l9-3.7c2.8,6.7,7.7,10.1,14.5,10.1
		c3.1,0,5.7-0.7,7.7-2.1s3-3.2,3-5.5c0-3.5-2.4-5.9-7.3-7.1l-10.8-2.6c-3.4-0.9-6.7-2.5-9.7-5c-3.1-2.4-4.6-5.7-4.6-9.9
		c0-4.7,2.1-8.6,6.3-11.5c4.2-3,9.2-4.4,14.9-4.4c4.7,0,9,1.1,12.7,3.2c3.7,2.2,6.4,5.2,8,9.2l-8.8,3.6c-2-4.7-6.1-7.1-12.2-7.1
		c-3,0-5.5,0.6-7.5,1.9c-2,1.2-3.1,2.9-3.1,5c0,3.1,2.4,5.1,7.1,6.2l10.6,2.5c5,1.2,8.8,3.2,11.2,6c2.4,2.8,3.6,6.1,3.6,9.6
		c0,4.8-2,8.8-5.9,12C992.8,95.21,987.7,96.81,981.5,96.81L981.5,96.81z"/>
	<path id="XMLID_29_" d="M1032.9,95.91c-5.6,0-9.9-1.5-12.9-4.5s-4.4-7.2-4.4-12.7v-28.1h-9.4v-9.2h9.4v-16.4h10.1v16.4h13.1v9.2
		h-13.1v27.3c0,5.8,2.4,8.8,7.2,8.8c1.8,0,3.4-0.3,4.6-0.9l3.5,8.6C1038.8,95.41,1036.1,95.91,1032.9,95.91L1032.9,95.91z"/>
	<g class="st0">
		<path d="M403.23,159.69c-0.26,12.54,8.79,16.38,19.88,16.38c6.4,0,16.13-3.5,16.13-12.37c0-6.91-6.91-9.64-12.54-11.01
			l-13.57-3.33c-7.17-1.79-13.74-5.2-13.74-14.68c0-5.97,3.84-17.15,20.99-17.15c12.03,0,22.61,6.48,22.53,18.94h-5.8
			c-0.34-9.3-8.02-13.99-16.64-13.99c-7.94,0-15.27,3.07-15.27,12.12c0,5.72,4.27,8.11,9.22,9.3l14.85,3.67
			c8.62,2.3,15.79,6.06,15.79,16.04c0,4.18-1.71,17.41-23.29,17.41c-14.42,0-25-6.49-24.32-21.33H403.23z"/>
		<path d="M488.9,179.74h-4.95v-7.94h-0.17c-2.82,5.89-8.62,9.22-15.19,9.22c-11.09,0-15.44-6.49-15.44-16.72v-28.58h5.38v28.67
			c0.26,7.94,3.24,12.12,11.78,12.12c9.21,0,13.23-8.7,13.23-17.66v-23.12h5.38V179.74z"/>
		<path d="M537.8,179.74h-4.95v-8.36h-0.17c-2.3,5.72-9.3,9.64-15.7,9.64c-13.4,0-19.8-10.84-19.8-23.29s6.4-23.29,19.8-23.29
			c6.57,0,12.97,3.33,15.27,9.64h0.17v-25.26h5.38V179.74z M516.98,176.5c11.43,0,15.44-9.64,15.44-18.77s-4.01-18.77-15.44-18.77
			c-10.24,0-14.42,9.64-14.42,18.77S506.74,176.5,516.98,176.5z"/>
		<path d="M548.04,118.82h5.38v25.26h0.17c2.3-6.31,8.7-9.64,15.27-9.64c13.4,0,19.8,10.84,19.8,23.29s-6.4,23.29-19.8,23.29
			c-7.08,0-13.23-3.67-15.7-9.64h-0.17v8.36h-4.95V118.82z M568.86,138.96c-11.43,0-15.44,9.64-15.44,18.77s4.01,18.77,15.44,18.77
			c10.24,0,14.42-9.64,14.42-18.77S579.1,138.96,568.86,138.96z"/>
		<path d="M632.68,179.74h-4.95v-7.94h-0.17c-2.82,5.89-8.62,9.22-15.19,9.22c-11.09,0-15.44-6.49-15.44-16.72v-28.58h5.38v28.67
			c0.26,7.94,3.24,12.12,11.77,12.12c9.22,0,13.23-8.7,13.23-17.66v-23.12h5.38V179.74z"/>
		<path d="M642.84,135.71h4.95v10.33h0.17c2.73-7.08,8.7-11.26,16.64-10.92v5.38c-9.73-0.51-16.38,6.66-16.38,15.79v23.46h-5.38
			V135.71z"/>
		<path d="M664.77,135.71h5.72l14.51,37.54l13.57-37.54h5.38l-19.11,50.77c-3.07,7.42-4.86,9.56-11.6,9.56
			c-2.13-0.09-3.24-0.09-4.1-0.43v-4.52c1.28,0.26,2.47,0.43,3.67,0.43c4.78,0,5.89-2.82,7.68-6.91l1.88-5.03L664.77,135.71z"/>
		<path d="M770.24,179.74H730.9c0.43-17.75,18.6-22.1,28.76-32.25c3.24-3.33,4.95-6.48,4.95-11.26c0-7.76-6.14-12.2-13.4-12.2
			c-9.81,0-13.65,7.85-13.48,16.64h-5.38c-0.26-12.29,6.14-21.16,19.11-21.16c10.41,0,18.52,5.72,18.52,16.81
			c0,9.98-7.25,16.21-15.02,21.25c-5.8,3.93-16.47,9.22-17.92,17.24h33.19V179.74z"/>
		<path d="M819.82,150.22c0,13.99-3.41,30.8-20.82,30.8c-17.41,0-20.82-16.81-20.82-30.72c0-13.99,3.41-30.8,20.82-30.8
			C816.41,119.5,819.82,136.31,819.82,150.22z M783.55,150.22c0,10.41,1.79,26.28,15.44,26.28s15.44-15.87,15.44-26.28
			c0-10.32-1.79-26.2-15.44-26.2S783.55,139.89,783.55,150.22z"/>
		<path d="M831,131.53c9.39-0.34,15.19-0.51,16.81-11.52h4.35v59.73h-5.38v-44.37H831V131.53z"/>
		<path d="M879.9,165.41c0.94,6.57,5.55,11.09,12.46,11.09c13.91,0,16.47-15.87,16.47-26.71h-0.17c-2.82,5.89-9.13,9.9-15.87,9.9
			c-11.95,0-19.71-8.28-19.71-19.97c0-11.6,8.45-20.22,20.22-20.22c14.51,0,20.91,8.45,20.91,31.74c0,7.08-1.79,29.78-21.33,29.78
			c-10.5,0-17.07-5.21-18.35-15.62H879.9z M907.71,139.38c0-8.45-4.52-15.36-14.93-15.36c-8.53,0-14.33,7.08-14.33,15.36
			c0,8.7,5.29,15.79,14.42,15.79C902.25,155.17,907.71,148.17,907.71,139.38z"/>
	</g>
</g>
<g>
	<g>
		<path class="st1" d="M87.05,96.43L143.4,63.9c13.26-7.66,17.8-24.61,10.15-37.87c-7.66-13.26-24.61-17.81-37.87-10.15L18.31,72.09
			L87.05,96.43z"/>
	</g>
	<g>
		<path class="st2" d="M129.51,180.05c9.58,0,18.9-4.97,24.04-13.87c7.66-13.26,3.11-30.22-10.15-37.87L46.03,72.09
			c-13.26-7.66-30.22-3.11-37.87,10.15C0.5,95.5,5.04,112.46,18.31,120.11l97.37,56.21C120.04,178.85,124.81,180.05,129.51,180.05z"
			/>
	</g>
	<g>
		<path class="st3" d="M226.37,180.05c4.7,0,9.47-1.2,13.84-3.72l97.37-56.21L269.7,95.27l-57.22,33.04
			c-13.26,7.66-17.8,24.61-10.15,37.87C207.46,175.07,216.78,180.05,226.37,180.05z"/>
	</g>
	<g>
		<path class="st4" d="M323.68,123.83c9.58,0,18.9-4.97,24.04-13.87c7.66-13.26,3.11-30.22-10.15-37.87L240.2,15.87
			c-13.26-7.66-30.22-3.11-37.87,10.15c-7.66,13.26-3.11,30.22,10.15,37.87l97.37,56.22C314.21,122.63,318.98,123.83,323.68,123.83z
			"/>
	</g>
</g>
</svg>
