<?xml version="1.0" encoding="UTF-8" standalone="no"?>
<svg
   xmlns:dc="http://purl.org/dc/elements/1.1/"
   xmlns:cc="http://creativecommons.org/ns#"
   xmlns:rdf="http://www.w3.org/1999/02/22-rdf-syntax-ns#"
   xmlns:svg="http://www.w3.org/2000/svg"
   xmlns="http://www.w3.org/2000/svg"
   xmlns:sodipodi="http://sodipodi.sourceforge.net/DTD/sodipodi-0.dtd"
   xmlns:inkscape="http://www.inkscape.org/namespaces/inkscape"
   inkscape:version="1.0 (4035a4fb49, 2020-05-01)"
   sodipodi:docname="logo-monochrome.svg"
   id="svg34"
   version="1.1"
   height="32"
   width="134.10001">
  <metadata
     id="metadata40">
    <rdf:RDF>
      <cc:Work
         rdf:about="">
        <dc:format>image/svg+xml</dc:format>
        <dc:type
           rdf:resource="http://purl.org/dc/dcmitype/StillImage" />
        <dc:title></dc:title>
      </cc:Work>
    </rdf:RDF>
  </metadata>
  <defs
     id="defs38" />
  <sodipodi:namedview
     inkscape:current-layer="g32"
     inkscape:window-maximized="1"
     inkscape:window-y="27"
     inkscape:window-x="0"
     inkscape:cy="26.786371"
     inkscape:cx="81.287608"
     inkscape:zoom="6.6815573"
     showgrid="true"
     id="namedview36"
     inkscape:window-height="1016"
     inkscape:window-width="1920"
     inkscape:pageshadow="2"
     inkscape:pageopacity="0"
     guidetolerance="10"
     gridtolerance="10"
     objecttolerance="10"
     borderopacity="1"
     bordercolor="#666666"
     pagecolor="#ffffff">
    <sodipodi:guide
       id="guide869"
       orientation="0,1044"
       position="0,207.56" />
    <sodipodi:guide
       id="guide871"
       orientation="207.56,0"
       position="1044,207.56" />
    <sodipodi:guide
       id="guide873"
       orientation="0,-1044"
       position="1044,0" />
    <sodipodi:guide
       id="guide875"
       orientation="-207.56,0"
       position="0,0" />
    <inkscape:grid
       id="grid877"
       type="xygrid" />
  </sodipodi:namedview>
  <style
     id="style2"
     type="text/css">.st0{enable-background:new    ;}
	.st1{fill:#EA4535;}
	.st2{fill:#557EBF;}
	.st3{fill:#F9BC15;}
	.st4{fill:#0B9D58;}</style>
  <g
     id="g32">
    <title
       id="title9">Layer 1</title>
    <text
       stroke="#000000"
       transform="matrix(3.5603192,0,0,3.5603192,-916.48516,-162.55352)"
       xml:space="preserve"
       text-anchor="start"
       font-family="Helvetica, Arial, sans-serif"
       font-size="24px"
       id="svg_22"
       y="95.967117"
       x="367.69595"
       stroke-opacity="null"
       stroke-width="0"
       fill="#000000">Sudbury 2020</text>
    <g
       transform="translate(-0.64826627,0.71986448)"
       id="g907">
      <g
         id="g7"
         transform="matrix(0.12722646,0,0,0.12722646,1.1997462,2.0928759)">
        <title
           id="title4">background</title>
        <rect
           x="-1"
           y="-1"
           width="1046"
           height="209.56"
           id="canvas_background"
           fill="none" />
      </g>
      <g
         id="XMLID_7_"
         transform="matrix(0.12722646,0,0,0.12722646,1.1997462,2.0928759)">
        <path
           id="XMLID_2_"
           d="m 477.5,59.01 c 0,10.9 -3.2,19.7 -9.7,26.1 -7.4,7.7 -17,11.6 -28.8,11.6 -11.3,0 -20.9,-3.9 -28.8,-11.8 -7.9,-7.8 -11.9,-17.6 -11.9,-29.1 0,-11.5 4,-21.3 11.9,-29.1 7.9,-7.8 17.5,-11.8 28.8,-11.8 5.6,0 11,1.1 16.1,3.3 5.1,2.2 9.2,5.1 12.2,8.8 l -6.9,6.9 c -5.2,-6.2 -12.3,-9.3 -21.4,-9.3 -8.2,0 -15.4,2.9 -21.4,8.7 -6,5.8 -9,13.3 -9,22.6 0,9.3 3,16.8 9,22.6 6,5.8 13.1,8.7 21.4,8.7 8.8,0 16,-2.9 21.9,-8.8 3.8,-3.8 6,-9.1 6.6,-15.9 H 439 v -9.4 h 38 c 0.3,2.1 0.5,4 0.5,5.9 z" />
        <path
           id="XMLID_4_"
           d="m 487.4,95.01 v -78.3 h 24 c 12,0 21.7,3.6 28.9,10.9 7.2,7.3 10.8,16.7 10.8,28.3 0,11.6 -3.6,21 -10.8,28.3 -7.2,7.3 -16.8,10.9 -28.9,10.9 h -24 z m 10.1,-9.6 h 13.9 c 9,0 16.2,-2.6 21.5,-7.8 5.3,-5.2 7.9,-12.4 7.9,-21.8 0,-9.3 -2.6,-16.5 -7.9,-21.7 -5.3,-5.2 -12.5,-7.8 -21.5,-7.8 h -13.9 c 0,0 0,59.1 0,59.1 z" />
        <path
           id="XMLID_8_"
           d="m 636.5,59.01 c 0,10.9 -3.2,19.7 -9.7,26.1 -7.4,7.7 -17,11.6 -28.8,11.6 -11.3,0 -20.9,-3.9 -28.8,-11.8 -7.9,-7.8 -11.9,-17.6 -11.9,-29.1 0,-11.5 4,-21.3 11.9,-29.1 7.9,-7.8 17.5,-11.8 28.8,-11.8 5.6,0 11,1.1 16.1,3.3 5.1,2.2 9.2,5.1 12.2,8.8 l -6.9,6.9 c -5.2,-6.2 -12.3,-9.3 -21.4,-9.3 -8.2,0 -15.4,2.9 -21.4,8.7 -6,5.8 -9,13.3 -9,22.6 0,9.3 3,16.8 9,22.6 6,5.8 13.1,8.7 21.4,8.7 8.8,0 16,-2.9 21.9,-8.8 3.8,-3.8 6,-9.1 6.6,-15.9 H 598 v -9.4 h 38 c 0.3,2.1 0.5,4 0.5,5.9 z" />
        <path
           id="XMLID_10_"
           d="m 672.8,95.01 v -78.3 h 24 c 12,0 21.7,3.6 28.9,10.9 7.2,7.3 10.8,16.7 10.8,28.3 0,11.6 -3.6,21 -10.8,28.3 -7.2,7.3 -16.8,10.9 -28.9,10.9 h -24 z m 10.1,-9.6 h 13.9 c 9,0 16.2,-2.6 21.5,-7.8 5.3,-5.2 7.9,-12.4 7.9,-21.8 0,-9.3 -2.6,-16.5 -7.9,-21.7 -5.3,-5.2 -12.5,-7.8 -21.5,-7.8 h -13.9 c 0,0 0,59.1 0,59.1 z" />
        <path
           id="XMLID_13_"
           d="m 769.4,96.81 c -8.1,0 -14.7,-2.7 -19.7,-8.1 -5.1,-5.4 -7.6,-12.2 -7.6,-20.5 0,-7.8 2.5,-14.5 7.4,-20.1 4.9,-5.6 11.2,-8.4 18.9,-8.4 7.9,0 14.3,2.6 19.1,7.8 4.8,5.2 7.2,12.1 7.2,20.8 l -0.1,1.9 h -42.3 c 0.3,5.4 2.1,9.7 5.4,12.8 3.3,3.1 7.2,4.7 11.6,4.7 7.2,0 12.1,-3.1 14.7,-9.2 l 9,3.7 c -1.8,4.2 -4.6,7.6 -8.6,10.4 -4.2,2.8 -9.1,4.2 -15,4.2 z m 14.5,-35 c -0.2,-3.1 -1.6,-6 -4.2,-8.8 -2.6,-2.8 -6.4,-4.2 -11.5,-4.2 -3.7,0 -6.9,1.2 -9.7,3.5 -2.7,2.3 -4.6,5.5 -5.6,9.4 h 31 z" />
        <path
           id="XMLID_16_"
           d="M 815.7,95.01 794,41.41 h 11 l 15.8,41.6 h 0.2 l 16,-41.6 h 10.7 l -21.9,53.6 z" />
        <path
           id="XMLID_18_"
           d="m 863.6,95.01 h -10.1 v -78.3 h 45.7 v 9.6 h -35.7 v 25.7 h 32.2 v 9.4 h -32.2 v 33.6 z" />
        <path
           id="XMLID_20_"
           d="m 929.7,96.81 c -8.1,0 -14.7,-2.7 -19.7,-8.1 -5.1,-5.4 -7.6,-12.2 -7.6,-20.5 0,-7.8 2.5,-14.5 7.4,-20.1 4.9,-5.6 11.2,-8.4 18.9,-8.4 7.9,0 14.3,2.6 19.1,7.8 4.8,5.2 7.2,12.1 7.2,20.8 l -0.1,1.9 h -42.3 c 0.3,5.4 2.1,9.7 5.4,12.8 3.3,3.1 7.2,4.7 11.6,4.7 7.2,0 12.1,-3.1 14.7,-9.2 l 9,3.7 c -1.8,4.2 -4.6,7.6 -8.6,10.4 -4.3,2.8 -9.2,4.2 -15,4.2 z m 14.4,-35 c -0.2,-3.1 -1.6,-6 -4.2,-8.8 -2.6,-2.8 -6.4,-4.2 -11.5,-4.2 -3.7,0 -6.9,1.2 -9.7,3.5 -2.7,2.3 -4.6,5.5 -5.6,9.4 h 31 z" />
        <path
           id="XMLID_27_"
           d="m 981.5,96.81 c -6,0 -10.9,-1.5 -14.8,-4.4 -3.9,-2.9 -6.8,-6.6 -8.6,-10.9 l 9,-3.7 c 2.8,6.7 7.7,10.1 14.5,10.1 3.1,0 5.7,-0.7 7.7,-2.1 2,-1.4 3,-3.2 3,-5.5 0,-3.5 -2.4,-5.9 -7.3,-7.1 l -10.8,-2.6 c -3.4,-0.9 -6.7,-2.5 -9.7,-5 -3.1,-2.4 -4.6,-5.7 -4.6,-9.9 0,-4.7 2.1,-8.6 6.3,-11.5 4.2,-3 9.2,-4.4 14.9,-4.4 4.7,0 9,1.1 12.7,3.2 3.7,2.2 6.4,5.2 8,9.2 l -8.8,3.6 c -2,-4.7 -6.1,-7.1 -12.2,-7.1 -3,0 -5.5,0.6 -7.5,1.9 -2,1.2 -3.1,2.9 -3.1,5 0,3.1 2.4,5.1 7.1,6.2 l 10.6,2.5 c 5,1.2 8.8,3.2 11.2,6 2.4,2.8 3.6,6.1 3.6,9.6 0,4.8 -2,8.8 -5.9,12 -4,3.3 -9.1,4.9 -15.3,4.9 z" />
        <path
           id="XMLID_29_"
           d="m 1032.9,95.91 c -5.6,0 -9.9,-1.5 -12.9,-4.5 -3,-3 -4.4,-7.2 -4.4,-12.7 v -28.1 h -9.4 v -9.2 h 9.4 v -16.4 h 10.1 v 16.4 h 13.1 v 9.2 h -13.1 v 27.3 c 0,5.8 2.4,8.8 7.2,8.8 1.8,0 3.4,-0.3 4.6,-0.9 l 3.5,8.6 c -2.2,1 -4.9,1.5 -8.1,1.5 z" />
      </g>
      <g
         id="svg_13"
         transform="matrix(0.12722646,0,0,0.12722646,1.1997462,2.0928759)">
        <g
           id="svg_14">
          <path
             class="st1"
             d="M 87.05,96.43 143.4,63.9 C 156.66,56.24 161.2,39.29 153.55,26.03 145.89,12.77 128.94,8.22 115.68,15.88 L 18.31,72.09 Z"
             id="svg_15" />
        </g>
        <g
           id="svg_16">
          <path
             class="st2"
             d="m 129.51,180.05 c 9.58,0 18.9,-4.97 24.04,-13.87 7.66,-13.26 3.11,-30.22 -10.15,-37.87 L 46.03,72.09 C 32.77,64.43 15.81,68.98 8.16,82.24 0.5,95.5 5.04,112.46 18.31,120.11 l 97.37,56.21 c 4.36,2.53 9.13,3.73 13.83,3.73 z"
             id="svg_17" />
        </g>
        <g
           id="svg_18">
          <path
             class="st3"
             d="m 226.37,180.05 c 4.7,0 9.47,-1.2 13.84,-3.72 l 97.37,-56.21 -67.88,-24.85 -57.22,33.04 c -13.26,7.66 -17.8,24.61 -10.15,37.87 5.13,8.89 14.45,13.87 24.04,13.87 z"
             id="svg_19" />
        </g>
        <g
           id="svg_20">
          <path
             class="st4"
             d="m 323.68,123.83 c 9.58,0 18.9,-4.97 24.04,-13.87 7.66,-13.26 3.11,-30.22 -10.15,-37.87 L 240.2,15.87 c -13.26,-7.66 -30.22,-3.11 -37.87,10.15 -7.66,13.26 -3.11,30.22 10.15,37.87 l 97.37,56.22 c 4.36,2.52 9.13,3.72 13.83,3.72 z"
             id="svg_21" />
        </g>
      </g>
      <text
         xml:space="preserve"
         style="font-size:10.1781px;line-height:0;font-family:'URW Gothic';-inkscape-font-specification:'URW Gothic';letter-spacing:0px;word-spacing:0px;stroke-width:0.127226"
         x="51.736534"
         y="24.851103"
         id="text867"><tspan
           sodipodi:role="line"
           id="tspan865"
           x="51.736534"
           y="24.851103"
           style="font-style:normal;font-variant:normal;font-weight:normal;font-stretch:normal;font-size:10.1781px;font-family:'Google Sans';-inkscape-font-specification:'Google Sans';stroke-width:0.127226">Sudbury 2020</tspan></text>
    </g>
  </g>
</svg>
